<svg xmlns="http://www.w3.org/2000/svg" viewBox="0 0 960 540" role="img" aria-labelledby="title desc">
  <title id="title">Work in progress</title>
  <desc id="desc">A work in progress board and warning triangle illustration.</desc>
  <defs>
    <linearGradient id="bg" x1="0" x2="1" y1="0" y2="1">
      <stop offset="0%" stop-color="#f8fafc"/>
      <stop offset="100%" stop-color="#e2e8f0"/>
    </linearGradient>
    <linearGradient id="board" x1="0" x2="1" y1="0" y2="1">
      <stop offset="0%" stop-color="#2b2f3a"/>
      <stop offset="100%" stop-color="#111827"/>
    </linearGradient>
    <filter id="shadow" x="-20%" y="-20%" width="140%" height="140%">
      <feDropShadow dx="0" dy="14" stdDeviation="16" flood-color="#0f172a" flood-opacity="0.25"/>
    </filter>
  </defs>
  <rect width="960" height="540" fill="url(#bg)"/>
  <g filter="url(#shadow)" transform="translate(120 90) rotate(-4 240 150)">
    <rect x="0" y="0" width="400" height="300" rx="24" fill="url(#board)" stroke="#0f172a" stroke-width="10"/>
    <g>
      <rect x="20" y="20" width="360" height="44" rx="12" fill="#111827"/>
      <rect x="20" y="236" width="360" height="44" rx="12" fill="#111827"/>
      <g fill="#facc15">
        <polygon points="20,20 58,20 24,64 20,64"/>
        <polygon points="72,20 110,20 76,64 38,64"/>
        <polygon points="124,20 162,20 128,64 90,64"/>
        <polygon points="176,20 214,20 180,64 142,64"/>
        <polygon points="228,20 266,20 232,64 194,64"/>
        <polygon points="280,20 318,20 284,64 246,64"/>
        <polygon points="332,20 370,20 336,64 298,64"/>
        <polygon points="20,236 58,236 24,280 20,280"/>
        <polygon points="72,236 110,236 76,280 38,280"/>
        <polygon points="124,236 162,236 128,280 90,280"/>
        <polygon points="176,236 214,236 180,280 142,280"/>
        <polygon points="228,236 266,236 232,280 194,280"/>
        <polygon points="280,236 318,236 284,280 246,280"/>
        <polygon points="332,236 370,236 336,280 298,280"/>
      </g>
    </g>
    <text x="58" y="150" fill="#ffffff" font-family="Arial, Helvetica, sans-serif" font-size="76" font-weight="800">WORK</text>
    <text x="58" y="208" fill="#ffffff" font-family="Arial, Helvetica, sans-serif" font-size="58" font-weight="800">IN PROGRESS</text>
  </g>
  <g filter="url(#shadow)" transform="translate(520 115)">
    <polygon points="170,0 340,300 0,300" fill="#ffffff" stroke="#ef4444" stroke-width="20" stroke-linejoin="round"/>
    <polygon points="170,42 292,260 48,260" fill="#ffffff"/>
    <circle cx="144" cy="154" r="28" fill="#111827"/>
    <rect x="116" y="186" width="56" height="14" rx="7" fill="#111827"/>
    <rect x="106" y="198" width="18" height="58" rx="9" fill="#111827"/>
    <rect x="160" y="198" width="18" height="70" rx="9" transform="rotate(24 169 233)" fill="#111827"/>
    <rect x="112" y="256" width="18" height="60" rx="9" transform="rotate(18 121 286)" fill="#111827"/>
    <rect x="164" y="264" width="18" height="52" rx="9" transform="rotate(-16 173 290)" fill="#111827"/>
    <rect x="196" y="160" width="16" height="124" rx="8" fill="#111827"/>
    <rect x="214" y="138" width="52" height="18" rx="9" transform="rotate(-25 240 147)" fill="#111827"/>
    <rect x="206" y="212" width="72" height="18" rx="9" transform="rotate(-25 242 221)" fill="#111827"/>
  </g>
</svg>
